<?xml version="1.0" encoding="UTF-8"?>
<svg id="Layer_1" xmlns="http://www.w3.org/2000/svg" viewBox="0 0 320 295">
  <defs>
    <style>
      .cls-1 {
        fill: #f15823;
      }

      .cls-2 {
        fill: #6d9a58;
      }

      .cls-3 {
        fill: #ee8423;
      }

      .cls-4 {
        fill: #91b881;
      }

      .cls-5 {
        fill: #fbae58;
      }

      .cls-6 {
        fill: #fcd043;
      }

      .cls-7 {
        fill: #fee482;
      }

      .cls-8 {
        fill: #4e7b39;
      }
    </style>
  </defs>
  <rect class="cls-3" x="131.17" y="30.06" width="19.22" height="18.07"/>
  <rect class="cls-3" x="150.39" y="30.06" width="19.22" height="18.07"/>
  <rect class="cls-3" x="169.61" y="30.06" width="19.22" height="18.07"/>
  <rect class="cls-3" x="111.96" y="48.13" width="19.22" height="18.07"/>
  <rect class="cls-5" x="131.17" y="48.13" width="19.22" height="18.07"/>
  <rect class="cls-5" x="150.39" y="48.13" width="19.22" height="18.07"/>
  <rect class="cls-5" x="169.61" y="48.13" width="19.22" height="18.07"/>
  <rect class="cls-3" x="188.83" y="48.13" width="19.22" height="18.07"/>
  <rect class="cls-3" x="92.74" y="66.2" width="19.22" height="18.07"/>
  <rect class="cls-5" x="111.96" y="66.2" width="19.22" height="18.07"/>
  <rect class="cls-5" x="131.17" y="66.2" width="19.22" height="18.07"/>
  <rect class="cls-6" x="150.39" y="66.2" width="19.22" height="18.07"/>
  <rect class="cls-5" x="169.61" y="66.2" width="19.22" height="18.07"/>
  <rect class="cls-5" x="188.83" y="66.2" width="19.22" height="18.07"/>
  <rect class="cls-3" x="208.04" y="66.2" width="19.22" height="18.07"/>
  <rect class="cls-1" x="73.52" y="84.26" width="19.22" height="18.07"/>
  <rect class="cls-3" x="92.74" y="84.26" width="19.22" height="18.07"/>
  <rect class="cls-5" x="111.96" y="84.26" width="19.22" height="18.07"/>
  <rect class="cls-6" x="131.17" y="84.26" width="19.22" height="18.07"/>
  <rect class="cls-7" x="150.39" y="84.26" width="19.22" height="18.07"/>
  <rect class="cls-6" x="169.61" y="84.26" width="19.22" height="18.07"/>
  <rect class="cls-5" x="188.83" y="84.26" width="19.22" height="18.07"/>
  <rect class="cls-3" x="208.04" y="84.26" width="19.22" height="18.07"/>
  <rect class="cls-1" x="227.26" y="84.26" width="19.22" height="18.07"/>
  <rect class="cls-3" x="73.52" y="102.33" width="19.22" height="18.07"/>
  <rect class="cls-5" x="92.74" y="102.33" width="19.22" height="18.07"/>
  <rect class="cls-6" x="111.96" y="102.33" width="19.22" height="18.07"/>
  <rect class="cls-7" x="131.17" y="102.33" width="19.22" height="18.07"/>
  <rect class="cls-7" x="150.39" y="102.33" width="19.22" height="18.07"/>
  <rect class="cls-7" x="169.61" y="102.33" width="19.22" height="18.07"/>
  <rect class="cls-6" x="188.83" y="102.33" width="19.22" height="18.07"/>
  <rect class="cls-5" x="208.04" y="102.33" width="19.22" height="18.07"/>
  <rect class="cls-3" x="227.26" y="102.33" width="19.22" height="18.07"/>
  <rect class="cls-1" x="73.52" y="120.4" width="19.22" height="18.07"/>
  <rect class="cls-3" x="92.74" y="120.4" width="19.22" height="18.07"/>
  <rect class="cls-5" x="111.96" y="120.4" width="19.22" height="18.07"/>
  <rect class="cls-6" x="131.17" y="120.4" width="19.22" height="18.07"/>
  <rect class="cls-7" x="150.39" y="120.4" width="19.22" height="18.07"/>
  <rect class="cls-6" x="169.61" y="120.4" width="19.22" height="18.07"/>
  <rect class="cls-5" x="188.83" y="120.4" width="19.22" height="18.07"/>
  <rect class="cls-3" x="208.04" y="120.4" width="19.22" height="18.07"/>
  <rect class="cls-1" x="227.26" y="120.4" width="19.22" height="18.07"/>
  <rect class="cls-3" x="92.74" y="138.47" width="19.22" height="18.07"/>
  <rect class="cls-3" x="111.96" y="138.47" width="19.22" height="18.07"/>
  <rect class="cls-5" x="131.17" y="138.47" width="19.22" height="18.07"/>
  <rect class="cls-6" x="150.39" y="138.47" width="19.22" height="18.07"/>
  <rect class="cls-5" x="169.61" y="138.47" width="19.22" height="18.07"/>
  <rect class="cls-3" x="188.83" y="138.47" width="19.22" height="18.07"/>
  <rect class="cls-3" x="208.04" y="138.47" width="19.22" height="18.07"/>
  <rect class="cls-8" x="54.3" y="156.53" width="19.22" height="18.07"/>
  <rect class="cls-3" x="111.96" y="156.53" width="19.22" height="18.07"/>
  <rect class="cls-3" x="131.18" y="156.53" width="19.22" height="18.07"/>
  <rect class="cls-3" x="150.39" y="156.53" width="19.22" height="18.07"/>
  <rect class="cls-3" x="169.6" y="156.53" width="19.22" height="18.07"/>
  <rect class="cls-3" x="188.83" y="156.53" width="19.22" height="18.07"/>
  <rect class="cls-8" x="246.48" y="156.53" width="19.22" height="18.07"/>
  <rect class="cls-8" x="54.3" y="174.6" width="19.22" height="18.07"/>
  <rect class="cls-8" x="73.52" y="174.6" width="19.22" height="18.07"/>
  <rect class="cls-3" x="131.17" y="174.6" width="19.22" height="18.07"/>
  <rect class="cls-3" x="150.39" y="174.6" width="19.22" height="18.07"/>
  <rect class="cls-3" x="169.61" y="174.6" width="19.22" height="18.07"/>
  <rect class="cls-8" x="227.26" y="174.6" width="19.22" height="18.07"/>
  <rect class="cls-8" x="246.48" y="174.6" width="19.22" height="18.07"/>
  <rect class="cls-8" x="54.3" y="192.67" width="19.22" height="18.07"/>
  <rect class="cls-2" x="73.52" y="192.67" width="19.22" height="18.07"/>
  <rect class="cls-8" x="92.74" y="192.67" width="19.22" height="18.07"/>
  <rect class="cls-8" x="150.39" y="192.67" width="19.22" height="18.07"/>
  <rect class="cls-8" x="208.04" y="192.67" width="19.22" height="18.07"/>
  <rect class="cls-4" x="227.26" y="192.67" width="19.22" height="18.07"/>
  <rect class="cls-8" x="246.48" y="192.67" width="19.22" height="18.07"/>
  <rect class="cls-8" x="73.52" y="210.74" width="19.22" height="18.07"/>
  <rect class="cls-4" x="92.74" y="210.74" width="19.22" height="18.07"/>
  <rect class="cls-8" x="111.96" y="210.74" width="19.22" height="18.07"/>
  <rect class="cls-8" x="150.39" y="210.74" width="19.22" height="18.07"/>
  <rect class="cls-8" x="188.83" y="210.74" width="19.22" height="18.07"/>
  <rect class="cls-4" x="208.04" y="210.74" width="19.22" height="18.07"/>
  <rect class="cls-8" x="227.26" y="210.74" width="19.22" height="18.07"/>
  <rect class="cls-8" x="73.52" y="228.8" width="19.22" height="18.07"/>
  <rect class="cls-2" x="92.74" y="228.8" width="19.22" height="18.07"/>
  <rect class="cls-4" x="111.96" y="228.8" width="19.22" height="18.07"/>
  <rect class="cls-2" x="131.17" y="228.8" width="19.22" height="18.07"/>
  <rect class="cls-8" x="150.39" y="228.8" width="19.22" height="18.07"/>
  <rect class="cls-2" x="169.61" y="228.8" width="19.22" height="18.07"/>
  <rect class="cls-4" x="188.83" y="228.8" width="19.22" height="18.07"/>
  <rect class="cls-2" x="208.04" y="228.8" width="19.22" height="18.07"/>
  <rect class="cls-2" x="227.26" y="228.8" width="19.22" height="18.07"/>
  <rect class="cls-2" x="92.74" y="246.87" width="19.22" height="18.07"/>
  <rect class="cls-8" x="111.96" y="246.87" width="19.22" height="18.07"/>
  <rect class="cls-8" x="131.17" y="246.87" width="19.22" height="18.07"/>
  <rect class="cls-8" x="150.39" y="246.87" width="19.22" height="18.07"/>
  <rect class="cls-8" x="169.61" y="246.87" width="19.22" height="18.07"/>
  <rect class="cls-8" x="188.83" y="246.87" width="19.22" height="18.07"/>
  <rect class="cls-2" x="208.04" y="246.87" width="19.22" height="18.07"/>
</svg>