<?xml version="1.0" encoding="UTF-8"?>
<svg id="Layer_1" data-name="Layer 1" xmlns="http://www.w3.org/2000/svg" viewBox="0 0 320 295">
  <defs>
    <style>
      .cls-1 {
        fill: #faf3ed;
      }

      .cls-2 {
        fill: #f1ebe6;
      }

      .cls-3 {
        fill: #e5dbd3;
      }

      .cls-4 {
        fill: #fcd043;
      }

      .cls-5 {
        fill: #fee482;
      }

      .cls-6 {
        fill: #fddd64;
      }
    </style>
  </defs>
  <rect class="cls-4" x="150.74" y="17.86" width="18.52" height="18.52"/>
  <rect class="cls-4" x="132.22" y="36.38" width="18.52" height="18.52"/>
  <rect class="cls-6" x="150.74" y="36.38" width="18.52" height="18.52"/>
  <rect class="cls-4" x="169.26" y="36.38" width="18.52" height="18.52"/>
  <rect class="cls-4" x="113.7" y="54.9" width="18.52" height="18.52"/>
  <rect class="cls-6" x="132.21" y="54.9" width="18.53" height="18.52"/>
  <rect class="cls-6" x="150.74" y="54.9" width="18.52" height="18.52"/>
  <rect class="cls-6" x="169.26" y="54.9" width="18.52" height="18.52"/>
  <rect class="cls-4" x="187.78" y="54.9" width="18.52" height="18.52"/>
  <rect class="cls-4" x="113.7" y="73.42" width="18.52" height="18.52"/>
  <rect class="cls-6" x="132.22" y="73.42" width="18.52" height="18.52"/>
  <rect class="cls-6" x="150.74" y="73.42" width="18.52" height="18.52"/>
  <rect class="cls-6" x="169.26" y="73.42" width="18.52" height="18.52"/>
  <rect class="cls-4" x="187.78" y="73.42" width="18.52" height="18.52"/>
  <rect class="cls-4" x="113.7" y="91.94" width="18.52" height="18.52"/>
  <rect class="cls-6" x="132.22" y="91.94" width="18.52" height="18.52"/>
  <rect class="cls-5" x="150.74" y="91.94" width="18.52" height="18.52"/>
  <rect class="cls-6" x="169.26" y="91.94" width="18.52" height="18.52"/>
  <rect class="cls-4" x="187.78" y="91.94" width="18.52" height="18.52"/>
  <rect class="cls-4" x="132.22" y="110.46" width="18.52" height="18.52"/>
  <rect class="cls-5" x="150.74" y="110.46" width="18.52" height="18.52"/>
  <rect class="cls-4" x="169.26" y="110.46" width="18.52" height="18.52"/>
  <rect class="cls-5" x="150.74" y="128.98" width="18.52" height="18.52"/>
  <rect class="cls-1" x="132.22" y="147.5" width="18.52" height="18.52"/>
  <rect class="cls-1" x="150.74" y="147.5" width="18.52" height="18.52"/>
  <rect class="cls-1" x="169.26" y="147.5" width="18.52" height="18.52"/>
  <rect class="cls-2" x="132.22" y="166.02" width="18.52" height="18.52"/>
  <rect class="cls-1" x="150.74" y="166.02" width="18.52" height="18.52"/>
  <rect class="cls-1" x="169.26" y="166.02" width="18.52" height="18.52"/>
  <rect class="cls-3" x="132.22" y="184.54" width="18.52" height="18.52"/>
  <rect class="cls-2" x="150.74" y="184.54" width="18.52" height="18.52"/>
  <rect class="cls-1" x="169.26" y="184.54" width="18.52" height="18.52"/>
  <rect class="cls-3" x="132.22" y="203.06" width="18.52" height="18.52"/>
  <rect class="cls-3" x="150.74" y="203.06" width="18.52" height="18.52"/>
  <rect class="cls-1" x="169.26" y="203.06" width="18.52" height="18.52"/>
  <rect class="cls-3" x="132.22" y="221.58" width="18.52" height="18.52"/>
  <rect class="cls-2" x="150.74" y="221.58" width="18.52" height="18.52"/>
  <rect class="cls-1" x="169.26" y="221.58" width="18.52" height="18.52"/>
  <rect class="cls-3" x="132.22" y="240.1" width="18.52" height="18.52"/>
  <rect class="cls-2" x="150.74" y="240.1" width="18.52" height="18.52"/>
  <rect class="cls-1" x="169.26" y="240.1" width="18.52" height="18.52"/>
  <rect class="cls-3" x="132.22" y="258.62" width="18.52" height="18.52"/>
  <rect class="cls-2" x="150.74" y="258.62" width="18.52" height="18.52"/>
  <rect class="cls-1" x="169.26" y="258.62" width="18.52" height="18.52"/>
</svg>