<?xml version="1.0" encoding="UTF-8"?>
<svg id="Layer_1" xmlns="http://www.w3.org/2000/svg" viewBox="0 0 320 295">
  <defs>
    <style>
      .cls-1 {
        fill: #434ca0;
      }

      .cls-2 {
        fill: #667ebe;
      }

      .cls-3 {
        fill: #5267b0;
      }
    </style>
  </defs>
  <rect class="cls-1" x="150.75" y="156.74" width="18.49" height="18.47"/>
  <rect class="cls-1" x="150.75" y="119.79" width="18.49" height="18.47"/>
  <rect class="cls-1" x="113.77" y="119.79" width="18.49" height="18.47"/>
  <rect class="cls-1" x="187.74" y="119.79" width="18.49" height="18.47"/>
  <rect class="cls-3" x="95.27" y="119.79" width="18.49" height="18.47"/>
  <rect class="cls-1" x="95.27" y="101.31" width="18.49" height="18.47"/>
  <rect class="cls-2" x="76.78" y="119.79" width="18.49" height="18.47"/>
  <rect class="cls-3" x="76.78" y="101.31" width="18.49" height="18.47"/>
  <rect class="cls-1" x="76.78" y="82.84" width="18.49" height="18.47"/>
  <rect class="cls-3" x="58.29" y="101.31" width="18.49" height="18.47"/>
  <rect class="cls-3" x="58.29" y="82.84" width="18.49" height="18.47"/>
  <rect class="cls-2" x="39.79" y="82.84" width="18.49" height="18.47"/>
  <rect class="cls-1" x="169.25" y="138.26" width="18.49" height="18.47"/>
  <rect class="cls-1" x="132.26" y="138.26" width="18.49" height="18.47"/>
  <rect class="cls-1" x="132.26" y="101.31" width="18.49" height="18.47"/>
  <rect class="cls-1" x="169.25" y="101.31" width="18.49" height="18.47"/>
  <rect class="cls-3" x="132.26" y="82.84" width="18.49" height="18.47"/>
  <rect class="cls-3" x="132.26" y="64.37" width="18.49" height="18.47"/>
  <rect class="cls-1" x="113.77" y="82.84" width="18.49" height="18.47"/>
  <rect class="cls-3" x="113.77" y="64.37" width="18.49" height="18.47"/>
  <rect class="cls-2" x="113.77" y="45.89" width="18.49" height="18.47"/>
  <rect class="cls-1" x="95.27" y="64.37" width="18.49" height="18.47"/>
  <rect class="cls-3" x="95.27" y="45.89" width="18.49" height="18.47"/>
  <rect class="cls-2" x="95.27" y="27.42" width="18.49" height="18.47"/>
  <rect class="cls-3" x="206.23" y="119.79" width="18.49" height="18.47"/>
  <rect class="cls-1" x="206.23" y="101.31" width="18.49" height="18.47"/>
  <rect class="cls-2" x="224.73" y="119.79" width="18.49" height="18.47"/>
  <rect class="cls-3" x="224.73" y="101.31" width="18.49" height="18.47"/>
  <rect class="cls-1" x="224.73" y="82.84" width="18.49" height="18.47"/>
  <rect class="cls-3" x="243.22" y="101.31" width="18.49" height="18.47"/>
  <rect class="cls-3" x="243.22" y="82.84" width="18.49" height="18.47"/>
  <rect class="cls-2" x="261.71" y="82.84" width="18.49" height="18.47"/>
  <rect class="cls-3" x="169.25" y="82.84" width="18.49" height="18.47"/>
  <rect class="cls-3" x="169.25" y="64.37" width="18.49" height="18.47"/>
  <rect class="cls-1" x="187.74" y="82.84" width="18.49" height="18.47"/>
  <rect class="cls-3" x="187.74" y="64.37" width="18.49" height="18.47"/>
  <rect class="cls-2" x="187.74" y="45.89" width="18.49" height="18.47"/>
  <rect class="cls-1" x="206.23" y="64.37" width="18.49" height="18.47"/>
  <rect class="cls-3" x="206.23" y="45.89" width="18.49" height="18.47"/>
  <rect class="cls-2" x="206.23" y="27.42" width="18.49" height="18.47"/>
  <rect class="cls-1" x="113.77" y="156.74" width="18.49" height="18.47"/>
  <rect class="cls-1" x="187.74" y="156.74" width="18.49" height="18.47"/>
  <rect class="cls-3" x="95.27" y="156.74" width="18.49" height="18.47"/>
  <rect class="cls-1" x="95.27" y="175.21" width="18.49" height="18.47"/>
  <rect class="cls-2" x="76.78" y="156.74" width="18.49" height="18.47"/>
  <rect class="cls-3" x="76.78" y="175.21" width="18.49" height="18.47"/>
  <rect class="cls-1" x="76.78" y="193.69" width="18.49" height="18.47"/>
  <rect class="cls-3" x="58.29" y="175.21" width="18.49" height="18.47"/>
  <rect class="cls-3" x="58.29" y="193.69" width="18.49" height="18.47"/>
  <rect class="cls-2" x="39.79" y="193.69" width="18.49" height="18.47"/>
  <rect class="cls-1" x="132.26" y="175.21" width="18.49" height="18.47"/>
  <rect class="cls-1" x="169.25" y="175.21" width="18.49" height="18.47"/>
  <rect class="cls-3" x="132.26" y="193.69" width="18.49" height="18.47"/>
  <rect class="cls-3" x="132.26" y="212.16" width="18.49" height="18.47"/>
  <rect class="cls-1" x="113.77" y="193.69" width="18.49" height="18.47"/>
  <rect class="cls-3" x="113.77" y="212.16" width="18.49" height="18.47"/>
  <rect class="cls-2" x="113.77" y="230.63" width="18.49" height="18.47"/>
  <rect class="cls-1" x="95.27" y="212.16" width="18.49" height="18.47"/>
  <rect class="cls-3" x="95.27" y="230.63" width="18.49" height="18.47"/>
  <rect class="cls-2" x="95.27" y="249.11" width="18.49" height="18.47"/>
  <rect class="cls-3" x="206.23" y="156.74" width="18.49" height="18.47"/>
  <rect class="cls-1" x="206.23" y="175.21" width="18.49" height="18.47"/>
  <rect class="cls-2" x="224.73" y="156.74" width="18.49" height="18.47"/>
  <rect class="cls-3" x="224.73" y="175.21" width="18.49" height="18.47"/>
  <rect class="cls-1" x="224.73" y="193.69" width="18.49" height="18.47"/>
  <rect class="cls-3" x="243.22" y="175.21" width="18.49" height="18.47"/>
  <rect class="cls-3" x="243.22" y="193.69" width="18.49" height="18.47"/>
  <rect class="cls-2" x="261.71" y="193.69" width="18.49" height="18.47"/>
  <rect class="cls-3" x="169.25" y="193.69" width="18.49" height="18.47"/>
  <rect class="cls-3" x="169.25" y="212.16" width="18.49" height="18.47"/>
  <rect class="cls-1" x="187.74" y="193.69" width="18.49" height="18.47"/>
  <rect class="cls-3" x="187.74" y="212.16" width="18.49" height="18.47"/>
  <rect class="cls-2" x="187.74" y="230.63" width="18.49" height="18.47"/>
  <rect class="cls-1" x="206.23" y="212.16" width="18.49" height="18.47"/>
  <rect class="cls-3" x="206.23" y="230.63" width="18.49" height="18.47"/>
  <rect class="cls-2" x="206.23" y="249.11" width="18.49" height="18.47"/>
</svg>