<?xml version="1.0" encoding="UTF-8"?>
<svg id="Layer_1" xmlns="http://www.w3.org/2000/svg" viewBox="0 0 1440 92.9">
  <defs>
    <style>
      .cls-1 {
        fill: #7f844b;
      }

      .cls-2 {
        fill: #b2b593;
      }
    </style>
  </defs>
  <rect class="cls-1" width="1440" height="92.9"/>
  <g>
    <rect class="cls-1" width="46.45" height="46.45"/>
    <rect class="cls-2" y="46.45" width="46.45" height="46.45"/>
    <rect class="cls-1" x="46.45" y="46.45" width="46.45" height="46.45"/>
    <rect class="cls-2" x="46.45" width="46.45" height="46.45"/>
    <rect class="cls-1" x="92.9" width="46.45" height="46.45"/>
    <rect class="cls-2" x="92.9" y="46.45" width="46.45" height="46.45"/>
    <rect class="cls-1" x="139.35" y="46.45" width="46.45" height="46.45"/>
    <rect class="cls-2" x="139.35" width="46.45" height="46.45"/>
    <rect class="cls-1" x="185.81" width="46.45" height="46.45"/>
    <rect class="cls-2" x="185.81" y="46.45" width="46.45" height="46.45"/>
    <rect class="cls-1" x="232.26" y="46.45" width="46.45" height="46.45"/>
    <rect class="cls-2" x="232.26" width="46.45" height="46.45"/>
    <rect class="cls-1" x="278.71" width="46.45" height="46.45"/>
    <rect class="cls-2" x="278.71" y="46.45" width="46.45" height="46.45"/>
    <rect class="cls-1" x="325.16" y="46.45" width="46.45" height="46.45"/>
    <rect class="cls-2" x="325.16" width="46.45" height="46.45"/>
    <rect class="cls-1" x="371.61" width="46.45" height="46.45"/>
    <rect class="cls-2" x="371.61" y="46.45" width="46.45" height="46.45"/>
    <rect class="cls-1" x="418.06" y="46.45" width="46.45" height="46.45"/>
    <rect class="cls-2" x="418.06" width="46.45" height="46.45"/>
    <rect class="cls-1" x="464.52" width="46.45" height="46.45"/>
    <rect class="cls-2" x="464.52" y="46.45" width="46.45" height="46.45"/>
    <rect class="cls-1" x="510.97" y="46.45" width="46.45" height="46.45"/>
    <rect class="cls-2" x="510.97" width="46.45" height="46.45"/>
    <rect class="cls-1" x="557.42" width="46.45" height="46.45"/>
    <rect class="cls-2" x="557.42" y="46.45" width="46.45" height="46.45"/>
    <rect class="cls-1" x="603.87" y="46.45" width="46.45" height="46.45"/>
    <rect class="cls-2" x="603.87" width="46.45" height="46.45"/>
    <rect class="cls-1" x="650.32" width="46.45" height="46.45"/>
    <rect class="cls-2" x="650.32" y="46.45" width="46.45" height="46.45"/>
    <rect class="cls-1" x="696.77" y="46.45" width="46.45" height="46.45"/>
    <rect class="cls-2" x="696.77" width="46.45" height="46.45"/>
    <rect class="cls-1" x="743.23" width="46.45" height="46.45"/>
    <rect class="cls-2" x="743.23" y="46.45" width="46.45" height="46.45"/>
    <rect class="cls-1" x="789.68" y="46.45" width="46.45" height="46.45"/>
    <rect class="cls-2" x="789.68" width="46.45" height="46.45"/>
    <rect class="cls-1" x="836.13" width="46.45" height="46.45"/>
    <rect class="cls-2" x="836.13" y="46.45" width="46.45" height="46.45"/>
    <rect class="cls-1" x="882.58" y="46.45" width="46.45" height="46.45"/>
    <rect class="cls-2" x="882.58" width="46.45" height="46.45"/>
    <rect class="cls-1" x="929.03" width="46.45" height="46.45"/>
    <rect class="cls-2" x="929.03" y="46.45" width="46.45" height="46.45"/>
    <rect class="cls-1" x="975.48" y="46.45" width="46.45" height="46.45"/>
    <rect class="cls-2" x="975.48" width="46.45" height="46.45"/>
    <rect class="cls-1" x="1021.94" width="46.45" height="46.45"/>
    <rect class="cls-2" x="1021.94" y="46.45" width="46.45" height="46.45"/>
    <rect class="cls-1" x="1068.39" y="46.45" width="46.45" height="46.45"/>
    <rect class="cls-2" x="1068.39" width="46.45" height="46.45"/>
    <rect class="cls-1" x="1114.84" width="46.45" height="46.45"/>
    <rect class="cls-2" x="1114.84" y="46.45" width="46.45" height="46.45"/>
    <rect class="cls-1" x="1161.29" y="46.45" width="46.45" height="46.45"/>
    <rect class="cls-2" x="1161.29" width="46.45" height="46.45"/>
    <rect class="cls-1" x="1207.74" width="46.45" height="46.45"/>
    <rect class="cls-2" x="1207.74" y="46.45" width="46.45" height="46.45"/>
    <rect class="cls-1" x="1254.19" y="46.45" width="46.45" height="46.45"/>
    <rect class="cls-2" x="1254.19" width="46.45" height="46.45"/>
    <rect class="cls-1" x="1300.65" width="46.45" height="46.45"/>
    <rect class="cls-1" x="1347.1" y="46.45" width="46.45" height="46.45"/>
    <rect class="cls-2" x="1300.65" y="46.45" width="46.45" height="46.45"/>
    <rect class="cls-2" x="1347.1" width="46.45" height="46.45"/>
    <rect class="cls-1" x="1393.55" width="46.45" height="46.45"/>
    <rect class="cls-2" x="1393.55" y="46.45" width="46.45" height="46.45"/>
  </g>
</svg>