<?xml version="1.0" encoding="UTF-8"?>
<svg id="Layer_1" data-name="Layer 1" xmlns="http://www.w3.org/2000/svg" viewBox="0 0 320 295">
  <defs>
    <style>
      .cls-1 {
        fill: #f48281;
      }

      .cls-2 {
        fill: #de5b5b;
      }

      .cls-3 {
        fill: #c43131;
      }

      .cls-4 {
        fill: #f2adad;
      }
    </style>
  </defs>
  <g>
    <rect class="cls-2" x="76.49" y="63.99" width="18.56" height="18.56"/>
    <rect class="cls-2" x="95.05" y="63.99" width="18.56" height="18.56"/>
    <rect class="cls-2" x="113.6" y="63.99" width="18.56" height="18.56"/>
    <rect class="cls-1" x="187.84" y="63.99" width="18.56" height="18.56"/>
    <rect class="cls-2" x="206.4" y="63.99" width="18.56" height="18.56"/>
    <rect class="cls-2" x="224.95" y="63.99" width="18.56" height="18.56"/>
    <rect class="cls-2" x="57.93" y="82.55" width="18.56" height="18.56"/>
    <rect class="cls-4" x="76.49" y="82.55" width="18.56" height="18.56"/>
    <rect class="cls-4" x="95.05" y="82.55" width="18.56" height="18.56"/>
    <rect class="cls-2" x="113.6" y="82.55" width="18.56" height="18.56"/>
    <rect class="cls-1" x="132.16" y="82.55" width="18.56" height="18.56"/>
    <rect class="cls-1" x="169.28" y="82.55" width="18.56" height="18.56"/>
    <rect class="cls-4" x="187.84" y="82.55" width="18.56" height="18.56"/>
    <rect class="cls-1" x="206.4" y="82.55" width="18.56" height="18.56"/>
    <rect class="cls-2" x="224.95" y="82.55" width="18.56" height="18.56"/>
    <rect class="cls-2" x="243.51" y="82.55" width="18.56" height="18.56"/>
    <rect class="cls-2" x="57.93" y="101.1" width="18.56" height="18.56"/>
    <rect class="cls-4" x="76.49" y="101.1" width="18.56" height="18.56"/>
    <rect class="cls-1" x="95.05" y="101.1" width="18.56" height="18.56"/>
    <rect class="cls-1" x="113.6" y="101.1" width="18.56" height="18.56"/>
    <rect class="cls-1" x="132.16" y="101.1" width="18.56" height="18.56"/>
    <rect class="cls-1" x="150.72" y="101.1" width="18.56" height="18.56"/>
    <rect class="cls-1" x="169.28" y="101.1" width="18.56" height="18.56"/>
    <rect class="cls-1" x="187.84" y="101.1" width="18.56" height="18.56"/>
    <rect class="cls-1" x="206.4" y="101.1" width="18.56" height="18.56"/>
    <rect class="cls-1" x="224.95" y="101.1" width="18.56" height="18.56"/>
    <rect class="cls-2" x="243.51" y="101.1" width="18.56" height="18.56"/>
    <rect class="cls-2" x="57.93" y="119.66" width="18.56" height="18.56"/>
    <rect class="cls-1" x="76.49" y="119.66" width="18.56" height="18.56"/>
    <rect class="cls-1" x="95.05" y="119.66" width="18.56" height="18.56"/>
    <rect class="cls-1" x="113.6" y="119.66" width="18.56" height="18.56"/>
    <rect class="cls-1" x="132.16" y="119.66" width="18.56" height="18.56"/>
    <rect class="cls-1" x="150.72" y="119.66" width="18.56" height="18.56"/>
    <rect class="cls-1" x="169.28" y="119.66" width="18.56" height="18.56"/>
    <rect class="cls-1" x="187.84" y="119.66" width="18.56" height="18.56"/>
    <rect class="cls-1" x="206.4" y="119.66" width="18.56" height="18.56"/>
    <rect class="cls-1" x="224.95" y="119.66" width="18.56" height="18.56"/>
    <rect class="cls-2" x="243.51" y="119.66" width="18.56" height="18.56"/>
    <rect class="cls-1" x="76.49" y="138.22" width="18.56" height="18.56"/>
    <rect class="cls-1" x="95.05" y="138.22" width="18.56" height="18.56"/>
    <rect class="cls-1" x="113.6" y="138.22" width="18.56" height="18.56"/>
    <rect class="cls-1" x="132.16" y="138.22" width="18.56" height="18.56"/>
    <rect class="cls-1" x="150.72" y="138.22" width="18.56" height="18.56"/>
    <rect class="cls-1" x="169.28" y="138.22" width="18.56" height="18.56"/>
    <rect class="cls-1" x="187.84" y="138.22" width="18.56" height="18.56"/>
    <rect class="cls-1" x="206.4" y="138.22" width="18.56" height="18.56"/>
    <rect class="cls-2" x="224.95" y="138.22" width="18.56" height="18.56"/>
    <rect class="cls-1" x="95.05" y="156.78" width="18.56" height="18.56"/>
    <rect class="cls-1" x="113.6" y="156.78" width="18.56" height="18.56"/>
    <rect class="cls-1" x="132.16" y="156.78" width="18.56" height="18.56"/>
    <rect class="cls-1" x="150.72" y="156.78" width="18.56" height="18.56"/>
    <rect class="cls-1" x="169.28" y="156.78" width="18.56" height="18.56"/>
    <rect class="cls-1" x="187.84" y="156.78" width="18.56" height="18.56"/>
    <rect class="cls-2" x="206.4" y="156.78" width="18.56" height="18.56"/>
    <rect class="cls-1" x="113.6" y="175.34" width="18.56" height="18.56"/>
    <rect class="cls-1" x="132.16" y="175.34" width="18.56" height="18.56"/>
    <rect class="cls-1" x="150.72" y="175.34" width="18.56" height="18.56"/>
    <rect class="cls-1" x="169.28" y="175.34" width="18.56" height="18.56"/>
    <rect class="cls-2" x="187.84" y="175.34" width="18.56" height="18.56"/>
    <rect class="cls-1" x="132.16" y="193.9" width="18.56" height="18.56"/>
    <rect class="cls-1" x="150.72" y="193.9" width="18.56" height="18.56"/>
    <rect class="cls-2" x="169.28" y="193.9" width="18.56" height="18.56"/>
    <rect class="cls-2" x="150.72" y="212.45" width="18.56" height="18.56"/>
  </g>
  <g>
    <rect class="cls-3" x="76.49" y="45.43" width="18.56" height="18.56"/>
    <rect class="cls-3" x="95.05" y="45.43" width="18.56" height="18.56"/>
    <rect class="cls-3" x="113.6" y="45.43" width="18.56" height="18.56"/>
    <rect class="cls-3" x="187.84" y="45.43" width="18.56" height="18.56"/>
    <rect class="cls-3" x="206.4" y="45.43" width="18.56" height="18.56"/>
    <rect class="cls-3" x="224.95" y="45.43" width="18.56" height="18.56"/>
    <rect class="cls-3" x="57.93" y="63.99" width="18.56" height="18.56"/>
    <rect class="cls-3" x="132.16" y="63.99" width="18.56" height="18.56"/>
    <rect class="cls-3" x="169.28" y="63.99" width="18.56" height="18.56"/>
    <rect class="cls-3" x="243.51" y="63.99" width="18.56" height="18.56"/>
    <rect class="cls-3" x="39.37" y="82.55" width="18.56" height="18.56"/>
    <rect class="cls-3" x="150.72" y="82.55" width="18.56" height="18.56"/>
    <rect class="cls-3" x="262.07" y="82.55" width="18.56" height="18.56"/>
    <rect class="cls-3" x="39.37" y="101.1" width="18.56" height="18.56"/>
    <rect class="cls-3" x="262.07" y="101.1" width="18.56" height="18.56"/>
    <rect class="cls-3" x="39.37" y="119.66" width="18.56" height="18.56"/>
    <rect class="cls-3" x="262.07" y="119.66" width="18.56" height="18.56"/>
    <rect class="cls-3" x="57.93" y="138.22" width="18.56" height="18.56"/>
    <rect class="cls-3" x="243.51" y="138.22" width="18.56" height="18.56"/>
    <rect class="cls-3" x="76.49" y="156.78" width="18.56" height="18.56"/>
    <rect class="cls-3" x="224.95" y="156.78" width="18.56" height="18.56"/>
    <rect class="cls-2" x="95.05" y="175.34" width="18.56" height="18.56"/>
    <rect class="cls-3" x="206.4" y="175.34" width="18.56" height="18.56"/>
    <rect class="cls-2" x="113.6" y="193.9" width="18.56" height="18.56"/>
    <rect class="cls-3" x="187.84" y="193.9" width="18.56" height="18.56"/>
    <rect class="cls-2" x="132.16" y="212.45" width="18.56" height="18.56"/>
    <rect class="cls-3" x="169.28" y="212.45" width="18.56" height="18.56"/>
    <rect class="cls-2" x="150.72" y="231.01" width="18.56" height="18.56"/>
  </g>
</svg>