<?xml version="1.0" encoding="UTF-8"?>
<svg id="Layer_1" data-name="Layer 1" xmlns="http://www.w3.org/2000/svg" viewBox="0 0 320 295">
  <defs>
    <style>
      .cls-1 {
        fill: #434ca0;
      }

      .cls-2 {
        fill: #6d9a58;
      }

      .cls-3 {
        fill: #667ebe;
      }

      .cls-4 {
        fill: #91b881;
      }

      .cls-5 {
        fill: #4e7b39;
      }

      .cls-6 {
        fill: #5267b0;
      }
    </style>
  </defs>
  <rect class="cls-1" x="270.92" y="120.07" width="18.49" height="18.47"/>
  <rect class="cls-6" x="270.92" y="138.35" width="18.49" height="18.49"/>
  <rect class="cls-3" x="270.92" y="101.47" width="18.49" height="18.49"/>
  <rect class="cls-1" x="252.43" y="119.96" width="18.49" height="18.49"/>
  <rect class="cls-6" x="252.43" y="101.47" width="18.49" height="18.49"/>
  <rect class="cls-3" x="252.43" y="83" width="18.49" height="18.47"/>
  <rect class="cls-5" x="233.95" y="138.46" width="18.47" height="18.47"/>
  <rect class="cls-5" x="233.95" y="156.74" width="18.47" height="18.49"/>
  <rect class="cls-1" x="233.95" y="101.47" width="18.47" height="18.49"/>
  <rect class="cls-3" x="233.95" y="83" width="18.47" height="18.47"/>
  <rect class="cls-5" x="215.46" y="212.39" width="18.49" height="18.49"/>
  <rect class="cls-5" x="215.46" y="138.46" width="18.49" height="18.47"/>
  <rect class="cls-2" x="215.46" y="119.96" width="18.49" height="18.49"/>
  <rect class="cls-3" x="215.46" y="83" width="18.49" height="18.47"/>
  <rect class="cls-3" x="215.46" y="64.5" width="18.49" height="18.49"/>
  <rect class="cls-5" x="196.97" y="230.88" width="18.49" height="18.49"/>
  <rect class="cls-5" x="196.97" y="212.39" width="18.49" height="18.49"/>
  <rect class="cls-4" x="196.97" y="156.93" width="18.49" height="18.49"/>
  <rect class="cls-5" x="178.47" y="230.88" width="18.49" height="18.49"/>
  <rect class="cls-5" x="178.47" y="212.39" width="18.49" height="18.49"/>
  <rect class="cls-5" x="178.47" y="193.92" width="18.49" height="18.47"/>
  <rect class="cls-4" x="178.47" y="175.42" width="18.49" height="18.49"/>
  <rect class="cls-2" x="160" y="249.18" width="18.47" height="18.49"/>
  <rect class="cls-2" x="178.5" y="119.77" width="18.47" height="18.49"/>
  <rect class="cls-2" x="160.01" y="156.75" width="18.49" height="18.47"/>
  <rect class="cls-4" x="160.01" y="138.26" width="18.49" height="18.49"/>
  <rect class="cls-2" x="141.52" y="175.23" width="18.49" height="18.49"/>
  <rect class="cls-4" x="141.52" y="156.75" width="18.49" height="18.47"/>
  <rect class="cls-1" x="160" y="27.33" width="18.49" height="18.49"/>
  <rect class="cls-2" x="141.53" y="249.17" width="18.47" height="18.49"/>
  <rect class="cls-2" x="141.53" y="230.69" width="18.47" height="18.47"/>
  <rect class="cls-2" x="141.53" y="212.2" width="18.47" height="18.49"/>
  <rect class="cls-2" x="141.53" y="193.71" width="18.47" height="18.49"/>
  <rect class="cls-1" x="141.53" y="64.31" width="18.47" height="18.47"/>
  <rect class="cls-6" x="141.53" y="45.82" width="18.47" height="18.49"/>
  <rect class="cls-2" x="123.03" y="249.18" width="18.49" height="18.49"/>
  <rect class="cls-4" x="123.03" y="230.68" width="18.49" height="18.49"/>
  <rect class="cls-2" x="123.03" y="175.23" width="18.49" height="18.47"/>
  <rect class="cls-2" x="123.03" y="156.74" width="18.49" height="18.49"/>
  <rect class="cls-5" x="123.03" y="138.25" width="18.49" height="18.49"/>
  <rect class="cls-5" x="123.03" y="119.77" width="18.49" height="18.47"/>
  <rect class="cls-5" x="123.03" y="101.28" width="18.49" height="18.49"/>
  <rect class="cls-1" x="123.03" y="82.79" width="18.49" height="18.49"/>
  <rect class="cls-1" x="123.03" y="64.31" width="18.49" height="18.47"/>
  <rect class="cls-6" x="123.03" y="45.82" width="18.49" height="18.49"/>
  <rect class="cls-3" x="123.03" y="27.33" width="18.49" height="18.49"/>
  <rect class="cls-2" x="104.54" y="230.68" width="18.49" height="18.49"/>
  <rect class="cls-4" x="104.54" y="212.19" width="18.49" height="18.49"/>
  <rect class="cls-5" x="104.54" y="119.77" width="18.49" height="18.47"/>
  <rect class="cls-1" x="104.54" y="101.28" width="18.49" height="18.49"/>
  <rect class="cls-6" x="104.54" y="82.79" width="18.49" height="18.49"/>
  <rect class="cls-6" x="104.54" y="64.31" width="18.49" height="18.47"/>
  <rect class="cls-6" x="104.54" y="45.82" width="18.49" height="18.49"/>
  <rect class="cls-4" x="86.07" y="193.72" width="18.47" height="18.47"/>
  <rect class="cls-1" x="86.07" y="119.77" width="18.47" height="18.47"/>
  <rect class="cls-6" x="86.07" y="101.28" width="18.47" height="18.49"/>
  <rect class="cls-6" x="86.07" y="82.79" width="18.47" height="18.49"/>
  <rect class="cls-3" x="86.07" y="64.31" width="18.47" height="18.47"/>
  <rect class="cls-1" x="67.57" y="138.25" width="18.49" height="18.49"/>
  <rect class="cls-1" x="67.57" y="119.77" width="18.49" height="18.47"/>
  <rect class="cls-6" x="67.57" y="101.28" width="18.49" height="18.49"/>
  <rect class="cls-6" x="67.57" y="82.79" width="18.49" height="18.49"/>
  <rect class="cls-3" x="67.57" y="64.31" width="18.49" height="18.47"/>
  <rect class="cls-6" x="49.08" y="138.25" width="18.49" height="18.49"/>
  <rect class="cls-6" x="49.08" y="119.77" width="18.49" height="18.47"/>
  <rect class="cls-3" x="49.08" y="101.28" width="18.49" height="18.49"/>
  <rect class="cls-1" x="30.59" y="156.74" width="18.49" height="18.49"/>
  <rect class="cls-6" x="30.59" y="119.77" width="18.49" height="18.47"/>
</svg>