<?xml version="1.0" encoding="UTF-8"?>
<svg id="Layer_1" xmlns="http://www.w3.org/2000/svg" viewBox="0 0 320 295">
  <defs>
    <style>
      .cls-1 {
        fill: #f05f82;
      }

      .cls-2 {
        fill: #fac6c4;
      }

      .cls-3 {
        fill: #f69eae;
      }

      .cls-4 {
        fill: #fcd043;
      }
    </style>
  </defs>
  <rect class="cls-3" x="225.07" y="193.98" width="18.58" height="18.6"/>
  <rect class="cls-3" x="225.07" y="175.39" width="18.58" height="18.58"/>
  <rect class="cls-3" x="225.07" y="101.02" width="18.58" height="18.6"/>
  <rect class="cls-3" x="225.07" y="82.44" width="18.58" height="18.58"/>
  <rect class="cls-3" x="206.49" y="212.58" width="18.58" height="18.58"/>
  <rect class="cls-2" x="206.49" y="193.98" width="18.58" height="18.6"/>
  <rect class="cls-2" x="206.49" y="175.39" width="18.58" height="18.58"/>
  <rect class="cls-3" x="206.49" y="156.79" width="18.58" height="18.6"/>
  <rect class="cls-3" x="206.49" y="119.63" width="18.58" height="18.58"/>
  <rect class="cls-2" x="206.49" y="101.02" width="18.58" height="18.6"/>
  <rect class="cls-2" x="206.49" y="82.44" width="18.58" height="18.58"/>
  <rect class="cls-3" x="206.49" y="63.84" width="18.58" height="18.6"/>
  <rect class="cls-3" x="187.88" y="212.58" width="18.6" height="18.58"/>
  <rect class="cls-2" x="187.88" y="193.98" width="18.6" height="18.6"/>
  <rect class="cls-2" x="187.88" y="175.39" width="18.6" height="18.58"/>
  <rect class="cls-2" x="187.88" y="156.79" width="18.6" height="18.6"/>
  <rect class="cls-3" x="187.88" y="138.21" width="18.6" height="18.58"/>
  <rect class="cls-2" x="187.88" y="119.63" width="18.6" height="18.58"/>
  <rect class="cls-2" x="187.88" y="101.02" width="18.6" height="18.6"/>
  <rect class="cls-2" x="187.88" y="82.44" width="18.6" height="18.58"/>
  <rect class="cls-3" x="187.88" y="63.84" width="18.6" height="18.6"/>
  <rect class="cls-3" x="169.3" y="193.98" width="18.58" height="18.6"/>
  <rect class="cls-2" x="169.3" y="175.39" width="18.58" height="18.58"/>
  <rect class="cls-2" x="169.3" y="156.79" width="18.58" height="18.6"/>
  <rect class="cls-1" x="169.3" y="138.21" width="18.58" height="18.58"/>
  <rect class="cls-2" x="169.3" y="119.63" width="18.58" height="18.58"/>
  <rect class="cls-2" x="169.3" y="101.02" width="18.58" height="18.6"/>
  <rect class="cls-3" x="169.3" y="82.44" width="18.58" height="18.58"/>
  <rect class="cls-3" x="150.7" y="175.39" width="18.6" height="18.58"/>
  <rect class="cls-1" x="150.7" y="156.79" width="18.6" height="18.6"/>
  <rect class="cls-4" x="150.7" y="138.21" width="18.6" height="18.58"/>
  <rect class="cls-1" x="150.7" y="119.63" width="18.6" height="18.58"/>
  <rect class="cls-3" x="150.7" y="101.02" width="18.6" height="18.6"/>
  <rect class="cls-3" x="132.12" y="193.98" width="18.58" height="18.6"/>
  <rect class="cls-2" x="132.12" y="175.39" width="18.58" height="18.58"/>
  <rect class="cls-2" x="132.12" y="156.79" width="18.58" height="18.6"/>
  <rect class="cls-1" x="132.12" y="138.21" width="18.58" height="18.58"/>
  <rect class="cls-2" x="132.12" y="119.63" width="18.58" height="18.58"/>
  <rect class="cls-2" x="132.12" y="101.02" width="18.58" height="18.6"/>
  <rect class="cls-3" x="132.12" y="82.44" width="18.58" height="18.58"/>
  <rect class="cls-3" x="113.53" y="212.58" width="18.58" height="18.58"/>
  <rect class="cls-2" x="113.53" y="193.98" width="18.58" height="18.6"/>
  <rect class="cls-2" x="113.53" y="175.39" width="18.58" height="18.58"/>
  <rect class="cls-2" x="113.53" y="156.79" width="18.58" height="18.6"/>
  <rect class="cls-3" x="113.53" y="138.21" width="18.58" height="18.58"/>
  <rect class="cls-2" x="113.53" y="119.63" width="18.58" height="18.58"/>
  <rect class="cls-2" x="113.53" y="101.02" width="18.58" height="18.6"/>
  <rect class="cls-2" x="113.53" y="82.44" width="18.58" height="18.58"/>
  <rect class="cls-3" x="113.53" y="63.84" width="18.58" height="18.6"/>
  <rect class="cls-3" x="94.93" y="212.58" width="18.6" height="18.58"/>
  <rect class="cls-2" x="94.93" y="193.98" width="18.6" height="18.6"/>
  <rect class="cls-2" x="94.93" y="175.39" width="18.6" height="18.58"/>
  <rect class="cls-3" x="94.93" y="156.79" width="18.6" height="18.6"/>
  <rect class="cls-3" x="94.93" y="119.63" width="18.6" height="18.58"/>
  <rect class="cls-2" x="94.93" y="101.02" width="18.6" height="18.6"/>
  <rect class="cls-2" x="94.93" y="82.44" width="18.6" height="18.58"/>
  <rect class="cls-3" x="94.93" y="63.84" width="18.6" height="18.6"/>
  <rect class="cls-3" x="76.35" y="193.98" width="18.58" height="18.6"/>
  <rect class="cls-3" x="76.35" y="175.39" width="18.58" height="18.58"/>
  <rect class="cls-3" x="76.35" y="101.02" width="18.58" height="18.6"/>
  <rect class="cls-3" x="76.35" y="82.44" width="18.58" height="18.58"/>
</svg>